<svg version="1.1" xmlns="http://www.w3.org/2000/svg" width="1024" height="1024">

<path d="M0 0 C2.10478142 -0.00346356 4.20956103 -0.00823277 6.3143369 -0.01418173 C12.05409907 -0.02662568 17.79371028 -0.02055157 23.53347278 -0.01122308 C29.74083109 -0.00440562 35.94816433 -0.0149272 42.15551758 -0.02316284 C53.59837481 -0.03570621 65.0411653 -0.03465554 76.48402214 -0.02642844 C87.05863954 -0.0188635 97.63323948 -0.01692014 108.20785904 -0.02049637 C108.91096995 -0.02072552 109.61408087 -0.02095468 110.33849817 -0.02119078 C113.19311539 -0.02212489 116.0477326 -0.0230801 118.90234981 -0.02407007 C145.64969209 -0.03323517 172.39700405 -0.02494595 199.14434164 -0.00877938 C222.87188895 0.00545299 246.59938793 0.00418478 270.32693481 -0.01016235 C297.02425124 -0.02625148 323.7215409 -0.03258193 350.41886151 -0.02332556 C353.26871371 -0.02236351 356.11856591 -0.02142498 358.96841812 -0.02049637 C360.02087092 -0.02014052 360.02087092 -0.02014052 361.0945854 -0.01977748 C371.65732167 -0.01637516 382.22003849 -0.02033706 392.78277206 -0.02793503 C404.80312055 -0.03653871 416.82339965 -0.03402677 428.84374605 -0.0180928 C434.97065706 -0.01023735 441.09747033 -0.00707175 447.22438049 -0.01704025 C452.84388208 -0.02604453 458.46319625 -0.02096069 464.08268107 -0.0051076 C466.104703 -0.00178387 468.12674109 -0.00339883 470.14875244 -0.01073496 C504.74399937 -0.12652455 537.03817946 8.5340587 563.72195435 31.38095093 C564.5314856 32.05641968 565.34101685 32.73188843 566.17507935 33.42782593 C589.72881288 53.72255231 604.53247446 83.50248783 607.72195435 114.38095093 C608.23050778 123.20599522 608.13948081 132.05430675 608.11412835 140.89061773 C608.10725952 144.44145897 608.11785728 147.99225829 608.12606812 151.54309082 C608.13932481 158.47577158 608.13656413 165.40835424 608.12783019 172.34103865 C608.12102257 177.98075911 608.12015014 183.62045231 608.12340164 189.2601757 C608.12386134 190.06643365 608.12432104 190.8726916 608.12479467 191.70338161 C608.12575396 193.34186484 608.1267266 194.98034806 608.12771244 196.61883127 C608.13624257 211.93959993 608.12646941 227.26031451 608.11031134 242.58107429 C608.09690777 255.69562727 608.09924121 268.81010056 608.11306763 281.9246521 C608.12916121 297.19653966 608.13542149 312.46837999 608.12623084 327.74027485 C608.1252753 329.37203053 608.12433219 331.00378622 608.12340164 332.63554192 C608.12293882 333.43816004 608.12247599 334.24077816 608.12199914 335.06771805 C608.11942075 340.6939817 608.1237552 346.32021511 608.1308403 351.94647408 C608.13929754 358.81248819 608.13688705 365.67839956 608.12099807 372.54440207 C608.11317208 376.04014479 608.1099254 379.53571687 608.11994553 383.0314579 C608.14986817 396.79578866 608.14736651 409.98128441 604.72195435 423.38095093 C604.43403298 424.57970022 604.43403298 424.57970022 604.14029503 425.80266666 C596.15471302 456.95057138 575.26495438 484.54815145 547.837677 501.15634155 C527.61830683 512.85959112 506.12050404 518.76545997 482.72961426 518.59886169 C481.48895159 518.598304 480.24828893 518.59774631 478.97003043 518.59717172 C476.27175581 518.59452601 473.573791 518.58826682 470.87557411 518.57561302 C466.48320739 518.5550397 462.09087932 518.54854998 457.69847107 518.54360962 C451.322066 518.53522042 444.94570139 518.5205539 438.56931686 518.50251961 C428.48376427 518.47486847 418.39826796 518.47155647 408.31268311 518.47261047 C406.59106775 518.47266488 404.8694524 518.47270249 403.14783704 518.47272354 C400.53963607 518.47276352 397.9314351 518.47280822 395.32323413 518.4729016 C385.512129 518.47311387 375.70102664 518.47026458 365.8899231 518.46469116 C364.99400375 518.46418998 364.09808441 518.4636888 363.175016 518.46317243 C348.64321544 518.45420422 334.11157041 518.41928674 319.57983486 518.37665219 C304.63489137 518.33360047 289.6901892 518.32495747 274.74519885 518.34646219 C265.5396322 518.35849638 256.33495623 518.34292148 247.1295215 518.29150515 C240.82196291 518.25870669 234.51494016 518.25884858 228.20735119 518.28463472 C224.57199961 518.29848593 220.93819623 518.29789505 217.30300713 518.25764275 C213.3547657 518.21428344 209.4087055 518.24109394 205.46032715 518.27415466 C204.32227863 518.2504658 203.18423011 518.22677693 202.01169527 518.20237023 C192.81324982 518.37586521 188.21636114 522.17248896 181.72195435 528.38095093 C180.28736933 529.57881244 178.84411096 530.76650717 177.38601685 531.93563843 C170.29944904 537.75754493 163.24022866 543.60677111 156.25369263 549.5484314 C152.05867253 553.11123497 147.80281156 556.59420668 143.53445435 560.06845093 C140.40395768 562.64241485 137.31022974 565.25664179 134.22195435 567.88095093 C129.36878835 572.00500278 124.46382469 576.0576063 119.5227356 580.07626343 C116.45419544 582.60128252 113.43158951 585.17583643 110.40945435 587.75595093 C105.38711604 592.03788805 100.24551926 596.13523458 95.03005981 600.17855835 C90.7510946 603.51738497 86.62733354 607.00493465 82.53445435 610.56845093 C65.03817016 625.77835835 65.03817016 625.77835835 52.92507935 625.65829468 C47.28595116 625.1700287 44.48365449 622.35578686 40.90945435 618.31845093 C37.29680426 613.46717795 37.58435015 609.22599426 37.60842896 603.41146851 C37.60828293 602.49419479 37.6081369 601.57692108 37.60798645 600.6318512 C37.60868377 597.5963709 37.61646778 594.56095177 37.6242981 591.52548218 C37.62616291 589.42226698 37.62758652 587.31905135 37.62858582 585.21583557 C37.63240596 579.67725426 37.64223198 574.13869913 37.65328979 568.60012817 C37.66351471 562.94959874 37.66808576 557.29906507 37.67312622 551.64852905 C37.68385467 540.55932484 37.70092509 529.47014006 37.72195435 518.38095093 C36.94537979 518.38761276 36.16880524 518.3942746 35.36869812 518.40113831 C27.97179205 518.46179552 20.57501024 518.5071983 13.17791843 518.53638744 C9.37697617 518.55189938 5.57624308 518.57286476 1.77542114 518.60726929 C-36.75596582 518.94642652 -36.75596582 518.94642652 -53.77804565 512.25595093 C-54.55937866 511.95664673 -55.34071167 511.65734253 -56.14572144 511.34896851 C-69.87810531 505.92552148 -82.00720292 498.89625664 -93.27804565 489.38095093 C-94.2216394 488.60106812 -95.16523315 487.8211853 -96.13742065 487.01766968 C-119.05712674 467.23809282 -132.31884699 438.8680781 -137.27804565 409.38095093 C-137.45207287 408.39122882 -137.62610008 407.40150671 -137.80540085 406.38179302 C-138.52521306 401.24986146 -138.42268749 396.1023678 -138.41848755 390.92997742 C-138.42145867 389.78246244 -138.42442979 388.63494747 -138.42749095 387.45265931 C-138.43615749 383.61014559 -138.43768451 379.7676631 -138.43917847 375.92514038 C-138.44327237 373.16841449 -138.44881294 370.41169184 -138.45422363 367.65496826 C-138.46778193 360.16461097 -138.47382859 352.67425905 -138.47823429 345.18389153 C-138.48100259 340.49861746 -138.48524117 335.81334543 -138.48973846 331.12807274 C-138.50193097 318.13418997 -138.5122283 305.14030884 -138.51561356 292.14642048 C-138.51583312 291.31536358 -138.51605269 290.48430669 -138.51627891 289.62806625 C-138.51649719 288.79510186 -138.51671546 287.96213746 -138.51694036 287.10393173 C-138.51738381 285.41624216 -138.51783037 283.7285526 -138.51828003 282.04086304 C-138.51850146 281.20372378 -138.51872289 280.36658451 -138.51895103 279.5040774 C-138.52289124 265.96740256 -138.54032155 252.43078181 -138.56363955 238.89412782 C-138.58743367 224.96753468 -138.59981916 211.04096857 -138.60098147 197.11435479 C-138.60189405 189.30688702 -138.60753979 181.49948963 -138.62580109 173.6920414 C-138.64131171 167.03744685 -138.64625893 160.3829444 -138.63806298 153.72833518 C-138.63419392 150.34147731 -138.63657917 146.95495279 -138.64912033 143.56809425 C-138.78015544 105.94614709 -131.67594119 69.97668526 -104.8210144 41.93173218 C-103.98183472 41.08997437 -103.14265503 40.24821655 -102.27804565 39.38095093 C-101.4272644 38.52372437 -100.57648315 37.6664978 -99.69992065 36.78329468 C-84.93332543 22.1357849 -67.48926833 12.47505519 -47.77804565 6.06845093 C-47.08042114 5.83811157 -46.38279663 5.60777222 -45.66403198 5.37045288 C-30.57082283 0.73724403 -15.66777619 -0.05670762 0 0 Z " fill="#000000" transform="translate(277.2780456542969,210.61904907226563)" data-index="1" style="opacity: 1;"></path>
<path d="M0 0 C16.17749046 9.20155762 31.02199406 20.3187675 45.03515625 32.52734375 C46.01355469 33.34332031 46.99195313 34.15929687 48 35 C48.52658203 35.50402344 49.05316406 36.00804687 49.59570312 36.52734375 C51.37098686 38.07071181 52.80839032 39.13507359 55 40 C58.3842828 39.70813727 61.26357782 38.43433955 64.375 37.125 C76.34936539 32.61952889 88.40160478 30.09973254 101 28 C102.175625 27.80083984 102.175625 27.80083984 103.375 27.59765625 C138.44298778 21.94357851 176.57668656 26.39750995 210 38 C211.99954354 38.6680345 213.99939367 39.3351551 216 40 C217.05960938 38.96166016 217.05960938 38.96166016 218.140625 37.90234375 C247.59558425 9.5927459 290.6589469 -19.20869509 332.9375 -20.375 C340.4465904 -20.13603262 345.43191421 -18.97516005 350.75 -13.5 C359.94778956 -2.01847681 360.37740906 13.93448967 360.3125 28 C360.30758545 29.27166016 360.3026709 30.54332031 360.29760742 31.85351562 C360.1667713 42.47606695 359.16466063 52.60962899 357 63 C356.82839355 63.84433594 356.65678711 64.68867188 356.47998047 65.55859375 C351.73385597 88.39428123 344.37466818 112.18835269 329.94360352 130.87036133 C328.72553339 133.01058797 328.72553339 133.01058797 329.67651367 135.43164062 C330.11326416 136.27919922 330.55001465 137.12675781 331 138 C331.40702148 138.85037842 331.81404297 139.70075684 332.23339844 140.5769043 C332.6874707 141.48351807 333.14154297 142.39013184 333.609375 143.32421875 C349.98256901 176.40256647 362.30087629 216.06170144 352 253 C350.52448631 257.10157674 348.88329443 261.0696464 347 265 C346.67 265 346.34 265 346 265 C345.85304688 264.05382812 345.70609375 263.10765625 345.5546875 262.1328125 C339.85927693 227.69565146 322.58608244 195.39119373 298.37255859 170.42822266 C297.15888953 169.16533329 295.97722338 167.87185741 294.80078125 166.57421875 C279.20855605 149.85341344 253.85517142 135.61824031 230.6796875 134.796875 C215.1459961 134.54227715 202.44138989 136.73880083 189.6875 146.3125 C181.05391091 154.94608909 175.90106748 165.88897872 175.75 178.0625 C175.77636365 193.63212017 181.90010998 205.73522783 192.66796875 216.8203125 C197.12416301 221.19818327 202.00724877 225.0709412 206.86035156 228.99487305 C220.58562274 240.09619533 232.18935885 252.9130037 235 271 C236.1036195 289.38159688 232.49217746 304.9843472 220 319.125 C214.16495638 325.42227537 207.45194238 329.82656806 200 334 C199.13117188 334.49113281 198.26234375 334.98226563 197.3671875 335.48828125 C188.56825331 339.94291408 178.61224183 342.02729611 169 344 C168.07566162 344.19053955 167.15132324 344.3810791 166.19897461 344.57739258 C156.83691106 346.26447449 147.54511391 346.33845955 138.0637207 346.31567383 C135.3343869 346.31252525 132.60615299 346.33601452 129.87695312 346.36132812 C114.75276196 346.4168473 100.18841524 344.76357107 85.6875 340.25 C84.44069458 339.86702759 84.44069458 339.86702759 83.16870117 339.47631836 C65.88403761 333.93243373 50.28555065 323.32527008 41.62524414 307.04711914 C34.63067954 293.1624344 32.28889668 278.24863003 36.625 263 C40.37783571 252.57836216 46.39487746 244.928172 54 237 C54.55300781 236.39542969 55.10601563 235.79085937 55.67578125 235.16796875 C59.2342028 231.39763128 63.17519262 228.2944982 67.3125 225.1875 C81.44364336 214.4744318 92.38723732 202.137139 95 184 C96.43925123 172.28558807 92.11755851 160.25758167 85 151 C75.59746242 140.74924886 63.38545846 135.49678149 49.57421875 134.6796875 C20.16843222 133.63594497 -4.32761168 147.95382279 -25.51171875 167.29296875 C-37.01834538 178.3660647 -46.00778758 191.24216375 -54 205 C-54.38929688 205.66870117 -54.77859375 206.33740234 -55.1796875 207.02636719 C-65.08099593 224.27889875 -74.39790732 244.97384148 -76 265 C-78.80583047 261.72920334 -79.92608584 258.61595728 -81.125 254.5 C-81.45757812 253.3759375 -81.79015625 252.251875 -82.1328125 251.09375 C-82.56207031 249.56234375 -82.56207031 249.56234375 -83 248 C-83.17869629 247.42838135 -83.35739258 246.8567627 -83.54150391 246.26782227 C-84.18977605 243.06132602 -84.18218095 239.87928327 -84.203125 236.62109375 C-84.21018463 235.90120773 -84.21724426 235.18132172 -84.22451782 234.43962097 C-84.4536901 204.14593616 -84.4536901 204.14593616 -81 190 C-80.71793701 188.80189697 -80.71793701 188.80189697 -80.43017578 187.57958984 C-76.30976265 170.55051569 -70.28263238 152.89080928 -60.82250977 138.06152344 C-59.72798253 135.31822038 -60.1517045 133.79436883 -61 131 C-62.30206405 128.55257545 -63.64216685 126.18833534 -65.0625 123.8125 C-85.05772935 89.17253863 -97.91840044 41.56259571 -87.91015625 1.85546875 C-85.15282537 -6.79521312 -81.81133394 -14.07546368 -73.8125 -18.9375 C-50.35430281 -25.47503036 -20.10164646 -10.90265309 0 0 Z " fill="#FEE0C7" transform="translate(473,322)" data-index="2" style="opacity: 1;"></path>
<path d="M0 0 C2.39280056 1.27002491 4.55797239 2.71544979 6.78125 4.265625 C7.87179688 4.9978125 8.96234375 5.73 10.0859375 6.484375 C14.3495998 9.36592584 18.56450153 12.31604156 22.78125 15.265625 C26.42586604 17.80903992 30.07206455 20.35017823 33.71875 22.890625 C34.68611084 23.56504639 35.65347168 24.23946777 36.65014648 24.93432617 C43.88812798 29.97178165 51.16892238 34.94331922 58.46875 39.890625 C66.89517611 45.60163157 75.27060585 51.37701474 83.59741211 57.23217773 C89.21505575 61.17926513 94.86220838 65.08025514 100.53125 68.953125 C101.31064941 69.48736084 102.09004883 70.02159668 102.89306641 70.57202148 C106.67056198 73.15789684 110.46021119 75.72103799 114.28125 78.2421875 C131.76726436 89.85544359 131.76726436 89.85544359 134.78125 99.265625 C135.15234375 102.5 135.15234375 102.5 135.21875 106.015625 C135.25871094 107.16546875 135.29867187 108.3153125 135.33984375 109.5 C134.20303395 117.16352897 130.3402811 122.45029337 124.21337891 127.01733398 C123.51390137 127.51177002 122.81442383 128.00620605 122.09375 128.515625 C121.35044434 129.06226807 120.60713867 129.60891113 119.84130859 130.17211914 C117.50009095 131.88742543 115.14223779 133.57766791 112.78125 135.265625 C111.29736118 136.3413233 109.81427422 137.4181287 108.33203125 138.49609375 C105.35541028 140.6562419 102.3715301 142.80584366 99.3828125 144.94921875 C94.65254765 148.34802408 89.96461956 151.80261047 85.28125 155.265625 C79.14123158 159.80332778 72.97770078 164.30529264 66.78125 168.765625 C60.60930657 173.20982921 54.46425696 177.68832595 48.34375 182.203125 C47.55758301 182.78304199 46.77141602 183.36295898 45.96142578 183.96044922 C41.95709933 186.91639403 37.95608584 189.87677173 33.95703125 192.83984375 C26.14711678 198.62106504 18.31539816 204.37065761 10.40625 210.015625 C9.71063965 210.51723145 9.0150293 211.01883789 8.29833984 211.53564453 C1.23083243 216.54448525 -4.47663502 218.37889701 -13.21875 217.265625 C-20.61629959 214.98701016 -25.41542463 210.97407343 -29.21875 204.265625 C-30.39672479 200.73170063 -30.37008443 197.5367734 -30.37265015 193.85945129 C-30.3770324 193.09890825 -30.38141465 192.33836522 -30.3859297 191.55477542 C-30.39931681 188.99850989 -30.40549638 186.44227884 -30.41162109 183.88598633 C-30.41952216 182.05618128 -30.42779111 180.22637778 -30.43640137 178.39657593 C-30.46262197 172.38028451 -30.47792952 166.36398613 -30.4921875 160.34765625 C-30.49754725 158.27659284 -30.50292476 156.20552948 -30.50831985 154.13446617 C-30.52994905 145.51912063 -30.54868557 136.90377696 -30.55994225 128.28841114 C-30.5761801 115.94184218 -30.60935359 103.59558799 -30.66634309 91.2491377 C-30.70504794 82.56791994 -30.72457562 73.88678635 -30.72986281 65.20548457 C-30.73351563 60.02064908 -30.74552972 54.83614931 -30.77796555 49.65140724 C-30.80805543 44.771675 -30.81435465 39.89248148 -30.80258179 35.01267624 C-30.80236113 33.22446242 -30.81065993 31.43622354 -30.82823563 29.64809608 C-30.99066034 12.16769412 -30.99066034 12.16769412 -25.21875 6.265625 C-18.38450432 -0.64866103 -9.41894232 -3.11753725 0 0 Z " fill="#FEE0C7" transform="translate(233.21875,361.734375)" data-index="3" style="opacity: 1;"></path>
<path d="M0 0 C1.21171875 -0.02449219 2.4234375 -0.04898438 3.671875 -0.07421875 C12.06987566 -0.10136746 20.55029185 0.55057493 27.31201172 6.05297852 C30.12387824 8.88047121 31.1557664 10.85671521 31.875 14.8125 C30.33065955 23.61524058 25.37598419 29.75327659 18.16015625 34.8515625 C15.52561087 36.52942939 12.90789267 38.06908581 10.07421875 39.38671875 C8.07696017 40.24324147 8.07696017 40.24324147 7.25 42.375 C6.65479979 48.25870043 6.44982984 53.83260434 9.84375 58.875 C14.3288352 63.65909088 19.71679931 66.08647893 26.16796875 66.61328125 C36.54321583 66.8488006 43.06791213 64.7660138 50.76953125 57.83984375 C52.40337085 56.27373595 52.40337085 56.27373595 54.25 53.9375 C56.25 52.375 56.25 52.375 59.875 52.4375 C63.25 53.375 63.25 53.375 65.25 56.375 C65.25 61.86254513 63.68660759 64.89245026 60.03125 68.74609375 C50.23444238 77.70501651 37.37183933 80.37985306 24.41796875 79.828125 C15.58838591 79.10402191 7.5118134 75.6368134 1.25 69.375 C-1.98458297 70.4868879 -4.66913511 71.93280571 -7.5 73.8125 C-17.69629996 80.19462849 -28.61820078 80.80368075 -40.28515625 78.75390625 C-49.24169281 76.35197452 -58.30701224 71.74330198 -63.5 63.75 C-64.89083998 59.99473204 -65.06454832 58.14337185 -63.75 54.375 C-60.75 52.375 -60.75 52.375 -57.5 52.25 C-52.84083801 53.6477486 -51.52283578 55.66296871 -48.58203125 59.3671875 C-44.75929294 63.55671306 -38.8027817 66.0915606 -33.18359375 66.61328125 C-25.45228865 66.80479989 -18.18708566 66.18567357 -12.08984375 60.94921875 C-7.13477855 55.35851836 -6.4033476 50.53914951 -6.75 43.375 C-8.07868194 39.38895418 -9.63749797 39.15419379 -13.3125 37.25 C-21.02464346 32.90732874 -27.70891179 26.92806058 -30.75 18.375 C-31.31850145 14.47670437 -30.95288785 12.76516894 -29.125 9.25 C-21.29500061 -0.22842031 -11.38132439 0.01195517 0 0 Z " fill="#020101" transform="translate(607.75,544.625)" data-index="4"></path>
<path d="M0 0 C18.03308345 5.07352807 38.66968137 21.90352565 48.5546875 37.71875 C47.26235485 41.59574794 45.81415168 42.0388942 42.3671875 44.15625 C30.90430071 51.5846368 20.99388974 60.88806011 11.5546875 70.71875 C-0.29230231 60.18404214 -6.55707902 38.97859659 -9.9453125 24.03125 C-10.10547852 23.32581055 -10.26564453 22.62037109 -10.43066406 21.89355469 C-11.65106964 15.91611575 -12.67207768 9.46436732 -10.1328125 3.78125 C-7.05392535 0.0181657 -4.7484194 -0.76531302 0 0 Z " fill="#FDF2E9" transform="translate(433.4453125,347.28125)" data-index="5"></path>
<path d="M0 0 C4.0048175 5.19694922 3.83448909 10.4581179 3.29296875 16.79541016 C0.85011972 35.17784914 -7.42452641 54.52135297 -19 69 C-23.29358567 65.38948478 -27.41871966 61.66214011 -31.5 57.8125 C-38.19958237 51.56106828 -45.54529115 46.30431207 -53 41 C-54.33743723 40.00549539 -55.67306301 39.00847211 -57 38 C-50.11145068 22.22371492 -28.81476289 7.46344737 -13.3046875 0.83984375 C-8.47781661 -0.91910073 -5.10870196 -1.30039686 0 0 Z " fill="#FDF2E9" transform="translate(791,348)" data-index="6"></path>
<path d="M0 0 C6.52225113 4.95521677 10.97404958 10.98464874 13.5625 18.75 C13.93921984 22.01490529 14.0923477 23.83748451 12.4375 26.6875 C9.56605645 28.31465135 7.70503891 27.5385055 4.5625 26.75 C1.95703125 25.04296875 1.95703125 25.04296875 -0.625 22.9375 C-7.88884837 17.45516458 -15.5714042 13.84355835 -24.84765625 14.3125 C-34.25734524 15.90207039 -41.37840569 20.81737383 -48.55078125 26.859375 C-51.95115882 29.08641525 -54.40053543 29.5778072 -58.4375 29.75 C-60.875 28.25 -60.875 28.25 -62.4375 25.75 C-63.61820757 19.84646213 -61.3971004 16.04942247 -58.2578125 11.23828125 C-44.36292341 -7.75537616 -19.95412229 -13.11270893 0 0 Z " fill="#F7EDE2" transform="translate(538.4375,501.25)" data-index="7"></path>
<path d="M0 0 C7.84342911 5.86229709 15.0133546 12.88279852 16.625 22.875 C16 26 16 26 14.4375 28.5 C10.90773305 30.67216428 8.98454261 29.94457584 5 29 C2.540535 27.62482278 0.39162021 25.93597122 -1.8125 24.1875 C-9.74618106 18.25379179 -16.9118267 14.12126384 -27.140625 14.5546875 C-35.7940477 15.90235169 -42.41254024 20.04745187 -49.03125 25.5390625 C-51.67745231 27.50271263 -53.7083099 28.15674715 -57 28 C-59.04331126 26.46150681 -59.90965759 25.61630847 -60.28515625 23.0546875 C-59.2836988 13.25094613 -53.6331848 6.90712639 -46.29296875 0.72265625 C-32.2080833 -9.85900386 -14.64126088 -9.19282842 0 0 Z " fill="#F8EDE3" transform="translate(724,501)" data-index="8"></path>
<path d="M0 0 C0.33 1.32 0.66 2.64 1 4 C-0.4375 6.25 -0.4375 6.25 -2 8 C-2.99 7.67 -3.98 7.34 -5 7 C-3.35 4.69 -1.7 2.38 0 0 Z " fill="#F7E6D1" transform="translate(563,523)" data-index="9"></path>
<path d="M0 0 C1.485 0.99 1.485 0.99 3 2 C2.625 4.9375 2.625 4.9375 2 8 C1.01 8.495 1.01 8.495 0 9 C0 6.03 0 3.06 0 0 Z " fill="#F4E8D6" transform="translate(819,578)" data-index="10"></path>
</svg>