<svg version="1.1" xmlns="http://www.w3.org/2000/svg" width="1024" height="1024">

<path d="M0 0 C0.86881987 -0.00205263 1.73763975 -0.00410527 2.6327875 -0.0062201 C5.54632428 -0.01187797 8.45981361 -0.01043434 11.37335491 -0.00901413 C13.48259097 -0.01159847 15.59182654 -0.01461183 17.70106143 -0.01801753 C23.49950474 -0.0260829 29.29793567 -0.02787685 35.09638393 -0.028615 C41.34956403 -0.0304664 47.60273772 -0.03801427 53.85591412 -0.04475021 C68.24505475 -0.05903992 82.63419133 -0.06486016 97.02333755 -0.06944216 C104.13859262 -0.07177979 111.25384688 -0.07538267 118.36910132 -0.07913754 C142.73947226 -0.09197315 167.10984274 -0.10269136 191.48021698 -0.10614014 C193.00962163 -0.10636177 194.53902629 -0.10658355 196.06843094 -0.10680549 C197.60147473 -0.10702613 199.13451852 -0.10724661 200.66756231 -0.10746694 C203.74297035 -0.10790948 206.81837839 -0.1083566 209.89378643 -0.10880661 C210.65630686 -0.108916 211.4188273 -0.10902539 212.20445441 -0.1091381 C236.91329881 -0.11276642 261.62211384 -0.1286779 286.33094699 -0.15199697 C312.47210865 -0.17662255 338.61325354 -0.19031428 364.75442713 -0.19150805 C367.62716592 -0.1916795 370.49990469 -0.19189492 373.37264347 -0.19214249 C374.07996055 -0.19219826 374.78727763 -0.19225402 375.51602856 -0.19231148 C386.87373347 -0.19345968 398.23140812 -0.20446217 409.58910284 -0.21902954 C421.01805108 -0.23343414 432.44694668 -0.23635789 443.87590418 -0.22858956 C450.06135959 -0.22469124 456.24671371 -0.22557269 462.43215656 -0.23964691 C468.10442441 -0.25243494 473.77651535 -0.25114538 479.44878312 -0.2390562 C481.49127802 -0.23710765 483.53378566 -0.24013827 485.57626269 -0.24890056 C501.65786829 -0.31347439 517.30059163 0.86519735 532.6147337 6.19392776 C533.47961407 6.48992874 534.34449444 6.78592972 535.23558331 7.09090042 C549.46118792 12.17138106 562.60216626 19.41387487 574.1772337 29.13142776 C575.03446026 29.84943558 575.89168682 30.56744339 576.77488995 31.30720901 C600.6611039 52.09227618 615.46500081 79.60335096 619.8178587 110.94392776 C620.07241722 113.16871153 620.07241722 113.16871153 621.1772337 115.13142776 C621.27260729 116.71767866 621.3045937 118.30792349 621.30586815 119.89703846 C621.31070482 121.41518834 621.31070482 121.41518834 621.3156392 122.96400791 C621.3140906 124.08430911 621.31254199 125.2046103 621.31094646 126.35886002 C621.3143448 128.13436876 621.3143448 128.13436876 621.31781179 129.94574636 C621.32306456 133.2417281 621.32379367 136.53765549 621.32261741 139.8336376 C621.32241393 143.38459567 621.32792726 146.93554551 621.33267498 150.48649979 C621.34099497 157.44893677 621.34373047 164.4113653 621.34428736 171.37380684 C621.34476209 177.03443897 621.34681472 182.6950683 621.34998798 188.35569954 C621.35879997 204.40151446 621.36340677 220.44732269 621.36265751 236.49314005 C621.36259758 237.79172064 621.36259758 237.79172064 621.36253643 239.11653519 C621.36247511 240.41670084 621.36247511 240.41670084 621.36241255 241.74313246 C621.36200642 255.77899897 621.37156611 269.81483861 621.3856748 283.85069735 C621.40004416 298.25959416 621.4069446 312.66847787 621.40608102 327.07738203 C621.40574914 335.16792429 621.4084922 343.25843842 621.41925907 351.34897423 C621.42837166 358.24077897 621.43053327 365.13254284 621.42374965 372.02435101 C621.42048763 375.53934599 621.42041608 379.05426261 621.4291029 382.56925011 C621.43681453 386.38460676 621.43218314 390.19975783 621.42447186 394.01511002 C621.42961542 395.11979616 621.43475898 396.2244823 621.44005841 397.36264378 C621.41235904 403.56865064 620.7855514 409.14218661 619.1772337 415.13142776 C618.82660757 416.60989326 618.47863377 418.08899229 618.13426495 419.56892776 C609.51669759 454.52196341 589.81668377 483.36614525 558.6772337 502.25642776 C533.73640009 516.28101591 507.23567171 519.92560398 479.05244803 519.66436744 C475.37302367 519.63609395 471.69358705 519.63785831 468.01407146 519.63599014 C461.66502682 519.62920289 455.31624364 519.60531053 448.96729565 519.57018661 C439.77627528 519.52016208 430.585459 519.50701859 421.39431587 519.50404558 C406.45977282 519.49907132 391.52530552 519.47851386 376.59080791 519.44148636 C375.70054359 519.43928867 374.81027926 519.43709099 373.89303723 519.4348267 C363.9457324 519.40979323 353.99845993 519.37934586 344.0511961 519.34132767 C343.15467693 519.33790638 342.25815777 519.3344851 341.33447136 519.33096014 C340.43866501 519.32753572 339.54285866 519.3241113 338.61990666 519.32058311 C336.81300658 519.31367799 335.00610648 519.30677855 333.19920635 519.2998848 C332.30640877 519.29646955 331.41361118 519.2930543 330.49375913 519.28953555 C315.59373698 519.23346516 300.69389975 519.21220765 285.79377484 519.21895003 C276.62585683 519.22167373 267.45895855 519.19504591 258.29126593 519.13004246 C252.01655681 519.08780162 245.74232851 519.07806693 239.46749857 519.09365115 C235.8522846 519.101561 232.23866273 519.09492338 228.62370396 519.04849434 C224.69797261 518.99839581 220.77431548 519.01851058 216.84831524 519.04481888 C215.71708791 519.01908365 214.58586059 518.99334843 213.42035365 518.96683335 C204.26521097 519.12458195 199.62488464 522.92193911 193.1772337 529.13142776 C192.00854967 530.13091663 190.83276202 531.12224241 189.6459837 532.10017776 C188.17645245 533.35314651 188.17645245 533.35314651 186.6772337 534.63142776 C181.82506463 538.7566369 176.91907537 542.80810646 171.97801495 546.82674026 C168.90947771 549.35175696 165.88677447 551.92620582 162.8647337 554.50642776 C158.32815913 558.37671625 153.70227143 562.10285133 148.9897337 565.75642776 C144.05240366 569.58603643 139.38744098 573.59818152 134.7866087 577.83064651 C131.75994231 580.49936882 128.61688661 582.97460371 125.4272337 585.44392776 C120.50120181 589.25819329 115.70233102 593.18115806 110.9897337 597.25642776 C105.13324181 602.31914719 99.205956 607.27381157 93.1772337 612.13142776 C92.00658609 613.09618089 90.83601741 614.0610298 89.66551495 615.02595901 C88.44077455 616.0200896 87.2155198 617.01358686 85.9897337 618.00642776 C85.43156963 618.47121536 84.87340557 618.93600296 84.29832745 619.41487503 C79.62098845 623.16374577 74.69551799 625.83372679 68.6381712 626.34627151 C62.03456229 625.46826359 57.78488359 623.13132166 53.3647337 618.06892776 C49.76898554 613.24035166 50.03948149 609.0409986 50.06370831 603.25374222 C50.06356228 602.34622208 50.06341625 601.43870193 50.0632658 600.50368118 C50.06396309 597.50066624 50.07174693 594.49771314 50.07957745 591.49470901 C50.08144228 589.41391407 50.08286587 587.33311869 50.08386517 585.25232315 C50.08768521 579.77292547 50.09751115 574.29355424 50.10856915 568.81416702 C50.11879427 563.2239607 50.12336515 557.63375011 50.12840557 552.04353714 C50.13913385 541.07282238 50.15620415 530.10212727 50.1772337 519.13142776 C49.49501751 519.1380896 48.81280132 519.14475143 48.10991192 519.15161514 C41.58221952 519.21250603 35.05460986 519.257789 28.5266943 519.28686428 C25.17305495 519.30231635 21.81983567 519.32488045 18.4662962 519.35774612 C-21.89845254 519.7429636 -56.27957849 511.94909032 -86.8227663 484.13142776 C-87.81663349 483.24390823 -87.81663349 483.24390823 -88.8305788 482.33845901 C-111.46437764 461.02057872 -125.05741973 427.77512887 -126.09877872 397.00514793 C-126.2488776 389.74608223 -126.22892164 382.48759891 -126.2109499 375.22737503 C-126.21337463 372.44769444 -126.22026109 369.6680286 -126.22688007 366.88835526 C-126.24012609 360.16268548 -126.23738071 353.4371169 -126.22864215 346.71144337 C-126.22182912 341.23815302 -126.2209644 335.76489076 -126.2242136 330.29159737 C-126.2246733 329.50854397 -126.225133 328.72549057 -126.22560663 327.91870828 C-126.22656594 326.32725978 -126.22753858 324.73581128 -126.2285244 323.1443628 C-126.23705169 308.26796246 -126.22728644 293.39161785 -126.2111233 278.51522665 C-126.19772519 265.79050474 -126.20004922 253.06586499 -126.21387959 240.34114456 C-126.22998722 225.51456111 -126.23622521 210.68802634 -126.22704279 195.86143535 C-126.22608729 194.27598155 -126.22514417 192.69052774 -126.2242136 191.10507393 C-126.22375077 190.32528581 -126.22328795 189.54549769 -126.2228111 188.74207963 C-126.2202365 183.28502844 -126.22455894 177.8280085 -126.23165226 172.37096214 C-126.24012548 165.70671083 -126.23766639 159.04256531 -126.22181003 152.37832589 C-126.21400417 148.98747621 -126.2123569 145.59694522 -126.22075748 142.20607567 C-126.31301457 101.15611737 -116.8737225 66.4387881 -87.8227663 36.13142776 C-65.34211816 13.74499252 -31.69280927 -0.07014368 0 0 Z " fill="#75A600" transform="translate(264.8227663040161,210.86857223510742)" data-index="1"></path>
<path d="M0 0 C0.87527344 0.00644531 1.75054687 0.01289063 2.65234375 0.01953125 C42.6826062 1.10762136 79.76045975 27.95811765 109 53.0546875 C109.94875 53.86164063 110.8975 54.66859375 111.875 55.5 C112.61234375 56.32628906 113.3496875 57.15257812 114.109375 58.00390625 C117.40699419 59.78778782 118.02217245 59.5129952 121.515625 58.53515625 C123.39231816 57.89756829 125.26178158 57.23845321 127.125 56.5625 C176.77879853 40.04957755 229.67429612 42.72703277 278.875 59.5 C279.47183594 58.92894531 280.06867188 58.35789062 280.68359375 57.76953125 C288.94493125 50.04831091 297.78007338 43.20926416 306.875 36.5 C307.72964844 35.86747314 307.72964844 35.86747314 308.6015625 35.22216797 C332.89239577 17.40041437 363.46838642 0.50814181 394.25 0.1875 C395.17039062 0.15849609 396.09078125 0.12949219 397.0390625 0.09960938 C403.23035499 0.0421188 406.85777169 0.79834312 411.875 4.5 C423.36871645 16.91986303 423.47258352 36.34871957 423.12109375 52.3359375 C421.83924807 85.38332216 413.28871598 123.29455737 392.89453125 150.17578125 C391.59304477 152.53324726 391.59304477 152.53324726 392.46875 155.37109375 C393.99718073 158.77185213 395.72769922 162.00954038 397.5625 165.25 C414.10494367 195.6017223 424.66242243 237.7383674 414.69921875 271.70703125 C411.49690936 281.87809064 411.49690936 281.87809064 408.875 284.5 C408.8234375 283.84 408.771875 283.18 408.71875 282.5 C404.30264262 243.95942647 379.54633315 202.36698303 349.31689453 178.25732422 C327.67388466 161.19985407 304.63260757 152.65499007 276.875 154.5 C265.35393786 156.39356071 254.74734195 162.20068118 247.37109375 171.328125 C239.27189733 183.08570518 236.95865519 196.0920674 239.52734375 210.04296875 C244.40260958 227.55626274 257.0088769 238.94719278 270.92822266 249.63452148 C283.97443474 259.68254708 294.87696998 273.09040261 297.58984375 289.7890625 C299.42583699 307.24357354 295.54014623 322.29007105 284.7734375 336.21875 C272.0196163 351.18082999 254.56413503 358.23426301 235.875 362.5 C235.1953418 362.66516113 234.51568359 362.83032227 233.81542969 363.00048828 C210.90410781 368.38058742 182.73353585 367.7770444 159.875 362.5 C159.11815918 362.33371094 158.36131836 362.16742187 157.58154297 361.99609375 C137.25499405 357.40636495 118.77749786 348.27544089 106.875 330.5 C98.47611996 316.43187594 95.43309777 301.34352477 99.0625 285.1875 C103.87236973 268.55336717 115.53080147 255.87161029 129.1875 245.6875 C143.53414625 234.93804574 154.7293419 222.70584422 157.875 204.5 C158.97721289 191.08267776 155.41731538 179.90283397 147.19921875 169.34765625 C139.61269117 160.88388565 127.71400231 155.28275742 116.42138672 154.28271484 C87.24327248 152.9576762 62.39334111 164.15767092 40.875 183.5 C12.69756775 209.50993746 -6.76680448 245.68546877 -13.125 283.5 C-15.73005033 280.38882561 -17.00588936 277.47488567 -18.25 273.625 C-18.74886719 272.11292969 -18.74886719 272.11292969 -19.2578125 270.5703125 C-24.76334434 251.07775381 -22.11719109 225.8197418 -17.125 206.5 C-16.79556396 205.21996094 -16.79556396 205.21996094 -16.45947266 203.9140625 C-12.3319963 188.35058476 -6.84951609 173.19304917 1.56201172 159.40698242 C3.15962944 156.64707256 4.00865295 155.11405585 3.31640625 151.93359375 C1.68661944 149.18194827 0.00480745 146.48665876 -1.75 143.8125 C-22.92400095 110.29916746 -33.62614074 62.02724209 -25.0390625 23.046875 C-22.84787427 14.54431555 -20.29596145 6.74742609 -12.53125 1.87109375 C-8.2176612 0.13477532 -4.60917378 -0.03595299 0 0 Z " fill="#FDE0C5" transform="translate(410.125,302.5)" data-index="2"></path>
<path d="M0 0 C5.01581737 3.37226883 9.91577102 6.90521164 14.81835938 10.43896484 C18.14042952 12.81601459 21.50429394 15.13015886 24.875 17.4375 C25.85448608 18.10930298 25.85448608 18.10930298 26.85375977 18.79467773 C30.37220502 21.20599467 33.89487464 23.61110751 37.41796875 26.015625 C47.12526056 32.64361117 56.79297251 39.32526988 66.43603516 46.04638672 C72.58489396 50.32883022 78.75022459 54.58575711 84.9375 58.8125 C85.70771484 59.3386792 86.47792969 59.8648584 87.27148438 60.40698242 C89.5140758 61.93835063 91.75700788 63.46921876 94 65 C99.34581686 68.64882666 104.6812704 72.31179758 110 76 C111.07636719 76.7425 112.15273438 77.485 113.26171875 78.25 C126.24925479 87.40543262 126.24925479 87.40543262 128 96 C128.68304767 103.43996539 128.73886312 109.94067241 124 116 C118.07481698 122.33022482 111.03154405 127.26665787 103.95703125 132.2109375 C99.49702835 135.33373212 95.12500495 138.57219953 90.75 141.8125 C84.52716036 146.4134525 78.28137292 150.9792888 72 155.5 C62.61213466 162.25975601 53.30303378 169.12417438 44 176 C32.34918937 184.61105572 20.67662305 193.18817601 8.90332031 201.63134766 C7.23004651 202.83457661 5.56367671 204.04739444 3.8984375 205.26171875 C-3.51123876 210.60071509 -9.58994352 214.15391021 -19 213 C-25.43251671 211.67530732 -30.13242063 208.28732369 -34 203 C-36.5290114 197.94323053 -37.43685451 193.86689976 -37.38768005 188.18873596 C-37.39575836 187.05504551 -37.39575836 187.05504551 -37.40399987 185.89845222 C-37.41823432 183.38208392 -37.41118709 180.86624502 -37.40405273 178.34985352 C-37.40975866 176.53915994 -37.41672379 174.72846997 -37.42485046 172.91778564 C-37.44277213 168.01074271 -37.44161537 163.10387869 -37.43590808 158.19681287 C-37.43281487 154.09641102 -37.43891014 149.99604347 -37.44494683 145.89564651 C-37.45898712 136.22068511 -37.4574348 126.54581203 -37.44604492 116.87084961 C-37.43456331 106.89773161 -37.44864127 96.9248825 -37.4754414 86.95179993 C-37.49760915 78.38088482 -37.50423337 69.81005405 -37.49836498 61.23911232 C-37.4949969 56.12371915 -37.49740076 51.00849835 -37.51461601 45.89312935 C-37.53010022 41.08230665 -37.52611318 36.27188189 -37.50731087 31.46107483 C-37.50362912 29.69867974 -37.50672137 27.93625506 -37.51719666 26.17388725 C-37.61443753 8.45725718 -37.61443753 8.45725718 -31.2890625 0.9765625 C-21.12829809 -7.27607714 -10.79030703 -6.84962385 0 0 Z " fill="#FDE0C6" transform="translate(240,366)" data-index="3"></path>
<path d="M0 0 C1.21171875 -0.02449219 2.4234375 -0.04898438 3.671875 -0.07421875 C12.06987566 -0.10136746 20.55029185 0.55057493 27.31201172 6.05297852 C30.12387824 8.88047121 31.1557664 10.85671521 31.875 14.8125 C30.33065955 23.61524058 25.37598419 29.75327659 18.16015625 34.8515625 C15.52561087 36.52942939 12.90789267 38.06908581 10.07421875 39.38671875 C8.07696017 40.24324147 8.07696017 40.24324147 7.25 42.375 C6.65479979 48.25870043 6.44982984 53.83260434 9.84375 58.875 C14.3288352 63.65909088 19.71679931 66.08647893 26.16796875 66.61328125 C36.54321583 66.8488006 43.06791213 64.7660138 50.76953125 57.83984375 C52.40337085 56.27373595 52.40337085 56.27373595 54.25 53.9375 C56.25 52.375 56.25 52.375 59.875 52.4375 C63.25 53.375 63.25 53.375 65.25 56.375 C65.25 61.86254513 63.68660759 64.89245026 60.03125 68.74609375 C50.23444238 77.70501651 37.37183933 80.37985306 24.41796875 79.828125 C15.58838591 79.10402191 7.5118134 75.6368134 1.25 69.375 C-1.98458297 70.4868879 -4.66913511 71.93280571 -7.5 73.8125 C-17.69629996 80.19462849 -28.61820078 80.80368075 -40.28515625 78.75390625 C-49.24169281 76.35197452 -58.30701224 71.74330198 -63.5 63.75 C-64.89083998 59.99473204 -65.06454832 58.14337185 -63.75 54.375 C-60.75 52.375 -60.75 52.375 -57.5 52.25 C-52.84083801 53.6477486 -51.52283578 55.66296871 -48.58203125 59.3671875 C-44.75929294 63.55671306 -38.8027817 66.0915606 -33.18359375 66.61328125 C-25.45228865 66.80479989 -18.18708566 66.18567357 -12.08984375 60.94921875 C-7.13477855 55.35851836 -6.4033476 50.53914951 -6.75 43.375 C-8.07868194 39.38895418 -9.63749797 39.15419379 -13.3125 37.25 C-21.02464346 32.90732874 -27.70891179 26.92806058 -30.75 18.375 C-31.31850145 14.47670437 -30.95288785 12.76516894 -29.125 9.25 C-21.29500061 -0.22842031 -11.38132439 0.01195517 0 0 Z " fill="#020101" transform="translate(607.75,544.625)" data-index="4"></path>
<path d="M0 0 C18.03308345 5.07352807 38.66968137 21.90352565 48.5546875 37.71875 C47.26235485 41.59574794 45.81415168 42.0388942 42.3671875 44.15625 C30.90430071 51.5846368 20.99388974 60.88806011 11.5546875 70.71875 C-0.29230231 60.18404214 -6.55707902 38.97859659 -9.9453125 24.03125 C-10.10547852 23.32581055 -10.26564453 22.62037109 -10.43066406 21.89355469 C-11.65106964 15.91611575 -12.67207768 9.46436732 -10.1328125 3.78125 C-7.05392535 0.0181657 -4.7484194 -0.76531302 0 0 Z " fill="#FDF2E9" transform="translate(433.4453125,347.28125)" data-index="5"></path>
<path d="M0 0 C4.0048175 5.19694922 3.83448909 10.4581179 3.29296875 16.79541016 C0.85011972 35.17784914 -7.42452641 54.52135297 -19 69 C-23.29358567 65.38948478 -27.41871966 61.66214011 -31.5 57.8125 C-38.19958237 51.56106828 -45.54529115 46.30431207 -53 41 C-54.33743723 40.00549539 -55.67306301 39.00847211 -57 38 C-50.11145068 22.22371492 -28.81476289 7.46344737 -13.3046875 0.83984375 C-8.47781661 -0.91910073 -5.10870196 -1.30039686 0 0 Z " fill="#FDF2E9" transform="translate(791,348)" data-index="6"></path>
<path d="M0 0 C7.06925389 4.90957671 13.42934946 11.28619151 15.87109375 19.6796875 C15.56074892 25.99003233 15.56074892 25.99003233 12.87109375 28.6796875 C7.67244646 28.4882359 4.94387348 26.54040086 0.99609375 23.3046875 C-7.54617337 16.62120302 -14.17662938 14.49377217 -25.12890625 15.6796875 C-33.01190864 17.27438382 -38.96208387 21.33717109 -45.09521484 26.32568359 C-48.16066942 28.71886584 -50.01642821 29.66799997 -53.92578125 30.07421875 C-57.12890625 29.6796875 -57.12890625 29.6796875 -59.12890625 28.1171875 C-60.55157823 24.64942455 -60.29474957 22.13769735 -59.12890625 18.6796875 C-54.00038668 7.49184944 -45.44758138 0.23452568 -34.12890625 -4.3203125 C-22.73178454 -7.58377312 -9.97453612 -6.18604259 0 0 Z " fill="#F4ECDA" transform="translate(536.12890625,500.3203125)" data-index="7"></path>
<path d="M0 0 C9.01309669 5.33510656 16.96105374 12.44954011 20.61328125 22.546875 C20.29749178 28.86266447 20.29749178 28.86266447 17.61328125 31.546875 C11.80452225 32.21711642 9.19105612 31.0259839 4.61328125 27.546875 C-5.17187441 20.48191706 -14.01218982 15.94526703 -26.38671875 17.546875 C-31.04849545 18.73997378 -34.77606616 21.0776154 -38.65625 23.8515625 C-39.23125244 24.26220947 -39.80625488 24.67285645 -40.39868164 25.09594727 C-41.53965533 25.92535292 -42.66842995 26.77185925 -43.78295898 27.63647461 C-46.36466287 29.55459527 -47.88729938 30.55604513 -51.15234375 30.49609375 C-53.38671875 29.546875 -53.38671875 29.546875 -55.38671875 26.546875 C-55.23248361 18.83511777 -51.38918044 12.46922255 -46.32421875 6.859375 C-34.1991669 -4.62328999 -14.87547791 -7.32457833 0 0 Z " fill="#F4ECDA" transform="translate(719.38671875,498.453125)" data-index="8"></path>
<path d="M0 0 C0.66 0.33 1.32 0.66 2 1 C-1.34003602 5.32239956 -4.32751069 8.17477391 -9 11 C-9.66 10.67 -10.32 10.34 -11 10 C-5.555 5.05 -5.555 5.05 0 0 Z " fill="#D6DE9E" transform="translate(700,352)" data-index="9"></path>
<path d="M0 0 C0.66 1.32 1.32 2.64 2 4 C0.02 5.98 -1.96 7.96 -4 10 C-4.66 9.67 -5.32 9.34 -6 9 C-4.02 6.03 -2.04 3.06 0 0 Z " fill="#E2E1AC" transform="translate(563,523)" data-index="10"></path>
<path d="M0 0 C0.66 0.66 1.32 1.32 2 2 C-0.97 4.475 -0.97 4.475 -4 7 C-4 4 -4 4 -2 1.8125 C-1.34 1.214375 -0.68 0.61625 0 0 Z " fill="#E0E9C0" transform="translate(674,505)" data-index="11"></path>
</svg>