<svg version="1.1" xmlns="http://www.w3.org/2000/svg" width="1024" height="1024">

<path d="M0 0 C0.86881987 -0.00205263 1.73763975 -0.00410527 2.6327875 -0.0062201 C5.54632428 -0.01187797 8.45981361 -0.01043434 11.37335491 -0.00901413 C13.48259097 -0.01159847 15.59182654 -0.01461183 17.70106143 -0.01801753 C23.49950474 -0.0260829 29.29793567 -0.02787685 35.09638393 -0.028615 C41.34956403 -0.0304664 47.60273772 -0.03801427 53.85591412 -0.04475021 C68.24505475 -0.05903992 82.63419133 -0.06486016 97.02333755 -0.06944216 C104.13859262 -0.07177979 111.25384688 -0.07538267 118.36910132 -0.07913754 C142.73947226 -0.09197315 167.10984274 -0.10269136 191.48021698 -0.10614014 C193.00962163 -0.10636177 194.53902629 -0.10658355 196.06843094 -0.10680549 C197.60147473 -0.10702613 199.13451852 -0.10724661 200.66756231 -0.10746694 C203.74297035 -0.10790948 206.81837839 -0.1083566 209.89378643 -0.10880661 C210.65630686 -0.108916 211.4188273 -0.10902539 212.20445441 -0.1091381 C236.91329881 -0.11276642 261.62211384 -0.1286779 286.33094699 -0.15199697 C312.47210865 -0.17662255 338.61325354 -0.19031428 364.75442713 -0.19150805 C367.62716592 -0.1916795 370.49990469 -0.19189492 373.37264347 -0.19214249 C374.07996055 -0.19219826 374.78727763 -0.19225402 375.51602856 -0.19231148 C386.87373347 -0.19345968 398.23140812 -0.20446217 409.58910284 -0.21902954 C421.01805108 -0.23343414 432.44694668 -0.23635789 443.87590418 -0.22858956 C450.06135959 -0.22469124 456.24671371 -0.22557269 462.43215656 -0.23964691 C468.10442441 -0.25243494 473.77651535 -0.25114538 479.44878312 -0.2390562 C481.49127802 -0.23710765 483.53378566 -0.24013827 485.57626269 -0.24890056 C501.65786829 -0.31347439 517.30059163 0.86519735 532.6147337 6.19392776 C533.47961407 6.48992874 534.34449444 6.78592972 535.23558331 7.09090042 C549.46118792 12.17138106 562.60216626 19.41387487 574.1772337 29.13142776 C575.03446026 29.84943558 575.89168682 30.56744339 576.77488995 31.30720901 C600.6611039 52.09227618 615.46500081 79.60335096 619.8178587 110.94392776 C620.07241722 113.16871153 620.07241722 113.16871153 621.1772337 115.13142776 C621.27260729 116.71767866 621.3045937 118.30792349 621.30586815 119.89703846 C621.31070482 121.41518834 621.31070482 121.41518834 621.3156392 122.96400791 C621.3140906 124.08430911 621.31254199 125.2046103 621.31094646 126.35886002 C621.3143448 128.13436876 621.3143448 128.13436876 621.31781179 129.94574636 C621.32306456 133.2417281 621.32379367 136.53765549 621.32261741 139.8336376 C621.32241393 143.38459567 621.32792726 146.93554551 621.33267498 150.48649979 C621.34099497 157.44893677 621.34373047 164.4113653 621.34428736 171.37380684 C621.34476209 177.03443897 621.34681472 182.6950683 621.34998798 188.35569954 C621.35879997 204.40151446 621.36340677 220.44732269 621.36265751 236.49314005 C621.36259758 237.79172064 621.36259758 237.79172064 621.36253643 239.11653519 C621.36247511 240.41670084 621.36247511 240.41670084 621.36241255 241.74313246 C621.36200642 255.77899897 621.37156611 269.81483861 621.3856748 283.85069735 C621.40004416 298.25959416 621.4069446 312.66847787 621.40608102 327.07738203 C621.40574914 335.16792429 621.4084922 343.25843842 621.41925907 351.34897423 C621.42837166 358.24077897 621.43053327 365.13254284 621.42374965 372.02435101 C621.42048763 375.53934599 621.42041608 379.05426261 621.4291029 382.56925011 C621.43681453 386.38460676 621.43218314 390.19975783 621.42447186 394.01511002 C621.42961542 395.11979616 621.43475898 396.2244823 621.44005841 397.36264378 C621.41239589 403.56039442 620.80317906 409.15027262 619.1772337 415.13142776 C618.88477764 416.38270462 618.88477764 416.38270462 618.58641338 417.6592598 C610.06520686 452.28199772 591.93318539 481.65858478 560.93602276 500.49324417 C549.8124449 506.96125958 538.52205577 511.60857049 526.1772337 515.13142776 C525.50601136 515.32344729 524.83478903 515.51546682 524.14322662 515.71330512 C509.38243186 519.75785728 494.72025942 519.66563994 479.51671052 519.54830182 C475.83448065 519.5245197 472.15223798 519.52464851 468.46994305 519.52202225 C462.10995669 519.5147003 455.75013644 519.49385741 449.39021587 519.46445656 C439.32937829 519.41883705 429.26867799 519.41170629 419.20775127 519.40982437 C415.75488554 519.40866901 412.30202002 519.40719272 408.84915447 519.40556431 C407.98669906 519.4051576 407.12424365 519.40475089 406.23565322 519.40433186 C396.45461189 519.39901856 386.67359117 519.38403195 376.89256573 519.36604691 C376.0000394 519.36441472 375.10751306 519.36278254 374.18794048 519.36110089 C359.69533556 519.33385477 345.20283821 519.28651398 330.71030116 519.23540004 C315.79231307 519.18366857 300.87452869 519.16661581 285.95645618 519.1782797 C276.77347468 519.18410569 267.59146851 519.16115765 258.4086799 519.10068897 C252.12083435 519.06159459 245.83348771 519.05515289 239.54555136 519.07413795 C235.92227964 519.0840282 232.30058469 519.07940576 228.67753696 519.03503609 C224.74280703 518.98718398 220.81018634 519.00953064 216.87523174 519.03808975 C215.74127594 519.01303665 214.60732014 518.98798355 213.43900204 518.96217126 C204.27521759 519.12500638 199.63118711 522.91397987 193.1772337 529.13142776 C192.00856912 530.13093938 190.83278341 531.12226837 189.6459837 532.10017776 C188.17645245 533.35314651 188.17645245 533.35314651 186.6772337 534.63142776 C180.02825414 540.28157403 173.27598391 545.79969514 166.5053587 551.30330276 C160.95679086 555.82554591 155.46808574 560.41026056 150.01365948 565.04500198 C145.71611745 568.69097708 141.36065568 572.26120057 136.9897337 575.81892776 C133.85923518 578.39289321 130.76557736 581.0071968 127.6772337 583.63142776 C121.90178356 588.53690718 116.05626286 593.35039375 110.1772337 598.13142776 C108.46830171 599.5265281 106.75998291 600.92237984 105.0522337 602.31892776 C104.15762432 603.04853714 103.26301495 603.77814651 102.3412962 604.52986526 C99.86284808 606.55916586 97.40546445 608.61265158 94.9506712 610.67049026 C94.20446514 611.29286575 93.45825909 611.91524124 92.68944073 612.55647659 C91.21540838 613.78632162 89.74484381 615.02033867 88.27830791 616.25911331 C81.19668036 622.15273194 74.7792702 626.73438139 65.1772337 626.13142776 C58.97061715 624.46168314 54.70103265 620.3866435 51.1772337 615.13142776 C49.85620685 611.16834723 50.0464165 607.38437752 50.06370831 603.25374222 C50.06356228 602.34622208 50.06341625 601.43870193 50.0632658 600.50368118 C50.06396309 597.50066624 50.07174693 594.49771314 50.07957745 591.49470901 C50.08144228 589.41391407 50.08286587 587.33311869 50.08386517 585.25232315 C50.08768521 579.77292547 50.09751115 574.29355424 50.10856915 568.81416702 C50.11879427 563.2239607 50.12336515 557.63375011 50.12840557 552.04353714 C50.13913385 541.07282238 50.15620415 530.10212727 50.1772337 519.13142776 C49.49501751 519.1380896 48.81280132 519.14475143 48.10991192 519.15161514 C41.58221952 519.21250603 35.05460986 519.257789 28.5266943 519.28686428 C25.17305495 519.30231635 21.81983567 519.32488045 18.4662962 519.35774612 C-21.89845254 519.7429636 -56.27957849 511.94909032 -86.8227663 484.13142776 C-87.81663349 483.24390823 -87.81663349 483.24390823 -88.8305788 482.33845901 C-99.11926488 472.64795236 -106.36182733 460.55943289 -112.8227663 448.13142776 C-113.30487568 447.22134964 -113.78698505 446.31127151 -114.2837038 445.37361526 C-117.1421979 439.56559224 -119.09779576 433.48833683 -121.0102663 427.31892776 C-121.26058613 426.52518753 -121.51090595 425.7314473 -121.76881123 424.91365433 C-126.5842369 408.72652846 -126.11474631 392.40436018 -126.09742451 375.68147659 C-126.10068715 372.90238903 -126.10689824 370.12330963 -126.11291218 367.34422684 C-126.12560041 360.60466266 -126.12746018 353.86513843 -126.12511192 347.12556431 C-126.12332168 341.6407405 -126.12509345 336.15592872 -126.12933636 330.67110634 C-126.12993155 329.88751098 -126.13052674 329.10391562 -126.13113996 328.29657495 C-126.13235184 326.70416032 -126.13356598 325.11174569 -126.13478234 323.51933106 C-126.14563564 308.61625687 -126.14350611 293.71320536 -126.13739749 278.8101299 C-126.13223256 265.21502212 -126.14347654 251.61998608 -126.16249571 238.02489249 C-126.18192965 224.02462713 -126.19012026 210.02439561 -126.18637246 196.02411669 C-126.18446853 188.1804615 -126.18686835 180.3368673 -126.201087 172.49322319 C-126.21307303 165.81424269 -126.21432574 159.13536072 -126.20229683 152.45637868 C-126.19645769 149.05745043 -126.19683421 145.65884729 -126.20729923 142.25990868 C-126.32455713 101.18733538 -116.89006817 66.45584069 -87.8227663 36.13142776 C-65.34211816 13.74499252 -31.69280927 -0.07014368 0 0 Z " fill="#4F00BB" transform="translate(264.8227663040161,210.86857223510742)" data-index="1" style="opacity: 1;"></path>
<path d="M0 0 C1.0986438 0.07335571 1.0986438 0.07335571 2.21948242 0.14819336 C36.60399158 3.06176491 70.33045643 23.26044417 96.25 44.9375 C96.83571777 45.42702148 97.42143555 45.91654297 98.02490234 46.42089844 C100.83257221 48.77522677 103.62805073 51.14287487 106.41015625 53.52734375 C107.34730469 54.32269531 108.28445313 55.11804688 109.25 55.9375 C109.98605469 56.7625 110.72210937 57.5875 111.48046875 58.4375 C114.78144968 60.22533735 115.39353068 59.95195204 118.890625 58.97265625 C120.76731816 58.33506829 122.63678158 57.67595321 124.5 57 C174.51644841 40.3664743 226.71744241 43.42664747 276.25 59.9375 C277.19746094 59.04611328 277.19746094 59.04611328 278.1640625 58.13671875 C308.93102723 29.63072693 353.31852648 -1.73306991 397.25 -0.0625 C402.9852022 1.02277672 408.55769167 3.25771386 412.25 7.9375 C427.09638586 33.83619533 420.81973888 70.71000273 413.78564453 98.0859375 C408.92969511 115.98149645 402.15965185 135.2460068 390.828125 150.16015625 C390.30734375 151.07667969 389.7865625 151.99320313 389.25 152.9375 C390.33832266 156.36453609 391.98699553 159.51329262 393.60546875 162.71875 C409.55800254 194.78792666 423.34625385 236.99816422 412.07421875 272.84765625 C408.89282633 282.29467367 408.89282633 282.29467367 406.25 284.9375 C406.11464844 284.02613281 405.97929688 283.11476563 405.83984375 282.17578125 C400.11126436 247.70139629 383.07820962 213.51339005 357.56152344 189.40698242 C356.25 187.9375 356.25 187.9375 356.25 185.9375 C355.66992188 185.68097656 355.08984375 185.42445313 354.4921875 185.16015625 C352.04277972 183.82450357 350.38246274 182.30825692 348.375 180.375 C329.36837147 163.25665215 305.08255162 153.60483453 279.5390625 154.49609375 C266.37234231 155.34289643 254.88722533 160.65000597 245.9375 170.4765625 C237.2343491 181.57947927 234.93137467 193.15310737 236.25 206.9375 C239.86475593 226.23045767 253.43061253 238.65277263 268.30322266 250.07202148 C281.04875534 259.88846765 291.98384635 273.11756456 294.96484375 289.3828125 C296.94433664 307.11689947 293.08003968 322.51425164 282.1484375 336.65625 C269.77943037 351.16688734 252.44797268 358.68078115 234.25 362.9375 C233.55890137 363.10266113 232.86780273 363.26782227 232.15576172 363.43798828 C199.18551111 370.86109243 155.25636107 368.98508654 125.69921875 351.55859375 C110.49506154 341.49523611 99.54726453 328.24567599 95.6875 310.12890625 C93.55005346 294.53699713 96.23956223 280.08082452 105.25 266.9375 C112.45501981 258.1437957 120.61542781 250.41024626 129.6875 243.5625 C142.53328412 233.6811276 151.12427881 222.70086152 155 206.875 C156.12428579 193.66464195 153.66586147 181.268544 145.41796875 170.55859375 C137.41562819 161.78422775 125.68568195 155.77395335 113.79614258 154.7199707 C83.71605442 153.35665487 58.68140763 165.32408653 36.70800781 185.34228516 C9.41397914 210.65355612 -9.78842387 247.2825738 -15.75 283.9375 C-17.75 282.9375 -17.75 282.9375 -19.00390625 279.734375 C-19.44783007 278.38793939 -19.88368975 277.0388249 -20.3125 275.6875 C-20.53357422 275.01847656 -20.75464844 274.34945313 -20.98242188 273.66015625 C-27.53652413 253.50282667 -25.03029948 227.17468381 -19.75 206.9375 C-19.41258789 205.64368408 -19.41258789 205.64368408 -19.06835938 204.32373047 C-15.66390913 191.64613922 -11.65197178 178.94341268 -5.30078125 167.41015625 C-4.87966064 166.64469482 -4.45854004 165.8792334 -4.0246582 165.09057617 C-3.19183049 163.60214189 -2.34073979 162.12374121 -1.46948242 160.6574707 C0.82422903 156.71009914 0.82422903 156.71009914 0.72265625 152.29296875 C0.23667969 151.51566406 -0.24929688 150.73835937 -0.75 149.9375 C-1.28753906 149.06996094 -1.82507813 148.20242188 -2.37890625 147.30859375 C-3.33603516 145.85646484 -3.33603516 145.85646484 -4.3125 144.375 C-18.11688723 122.47046505 -24.95769882 97.33083491 -28.75 71.9375 C-28.94335938 70.67550781 -29.13671875 69.41351563 -29.3359375 68.11328125 C-31.63932227 48.68060279 -32.1546796 23.76635648 -20.75 6.9375 C-15.40862742 0.53633127 -7.95346418 -0.53513874 0 0 Z " fill="#C7D0FE" transform="translate(412.75,302.0625)" data-index="2"></path>
<path d="M0 0 C6.15076676 3.45137069 11.82603432 7.68540596 17.54296875 11.80078125 C22.77993236 15.56196221 28.10336961 19.19099088 33.4375 22.8125 C35.32553885 24.09632767 37.21355998 25.38018141 39.1015625 26.6640625 C40.00293945 27.27668945 40.90431641 27.88931641 41.83300781 28.52050781 C52.83421226 36.00538414 63.75807062 43.60050909 74.67553711 51.20678711 C80.72294264 55.41625079 86.78862537 59.59712782 92.875 63.75 C94.39983213 64.7941357 95.92457015 65.83840884 97.44921875 66.8828125 C100.07311722 68.67967721 102.70075827 70.47046864 105.33447266 72.25292969 C108.45830576 74.36805046 111.57327441 76.49576622 114.6875 78.625 C115.66074219 79.27919922 116.63398438 79.93339844 117.63671875 80.60742188 C124.28180198 85.17242653 131.21430322 90.0627815 133.375 98.25 C134.21383143 105.86775985 134.28119469 113.06561249 129.375 119.25 C122.0196955 127.26975427 112.62227354 133.24651751 103.80126953 139.51318359 C99.79371771 142.38194226 95.83568222 145.31705109 91.875 148.25 C85.73533605 152.78817594 79.5714443 157.2896723 73.375 161.75 C63.98719227 168.50983749 54.67803505 175.37417344 45.375 182.25 C33.73889433 190.85018735 22.07823903 199.41272233 10.32275391 207.84936523 C9.01470715 208.78998497 7.70972489 209.73487971 6.40771484 210.68383789 C-0.14094649 215.4332002 -5.60077394 217.12042452 -13.625 216.25 C-20.76973044 214.61106542 -24.60777412 211.05170261 -28.875 205.125 C-31.6033982 200.64263154 -31.77350202 197.01403014 -31.77217102 191.91975403 C-31.77584771 191.16737809 -31.7795244 190.41500216 -31.7833125 189.63982695 C-31.79435175 187.11119613 -31.7981936 184.5826064 -31.80200195 182.05395508 C-31.80826646 180.24385446 -31.81491325 178.43375514 -31.82191467 176.62365723 C-31.84296017 170.67229102 -31.85331795 164.72092454 -31.86328125 158.76953125 C-31.86732871 156.72075576 -31.87144563 154.6719804 -31.87563133 152.62320518 C-31.89468458 142.9974037 -31.90891497 133.37160989 -31.9172433 123.74579316 C-31.92701471 112.63550372 -31.9533312 101.52541356 -31.99374419 90.41519433 C-32.02390959 81.82739239 -32.03871261 73.23964755 -32.04202431 64.65179366 C-32.04437445 59.52290267 -32.05333016 54.39422454 -32.07848549 49.2653904 C-32.10177834 44.43823932 -32.10599452 39.61144108 -32.09572411 34.78424835 C-32.09522892 33.01539371 -32.10154428 31.24652164 -32.11528015 29.47772026 C-32.24627188 11.60529941 -32.24627188 11.60529941 -25.87890625 4.2265625 C-25.32074219 3.78054688 -24.76257813 3.33453125 -24.1875 2.875 C-23.63191406 2.41351563 -23.07632813 1.95203125 -22.50390625 1.4765625 C-15.68893643 -2.97229514 -7.37813746 -3.39268201 0 0 Z " fill="#C8D0FE" transform="translate(234.625,362.75)" data-index="3"></path>
<path d="M0 0 C1.26779297 -0.02449219 2.53558594 -0.04898438 3.84179688 -0.07421875 C13.20149175 -0.10330118 21.40258513 0.82177397 28.3125 7.625 C30.57901025 10.66859947 31.59775757 13.36697352 31.265625 17.26953125 C28.94492259 25.72127852 21.57907435 32.53572656 14.2109375 36.8125 C12.64583395 37.64722189 11.06729773 38.45756852 9.47265625 39.234375 C7.35502416 40.32381971 7.35502416 40.32381971 6.6875 43.375 C5.91089154 49.82976216 6.79567546 55.07779438 10.6875 60.375 C17.32682482 65.85965964 24.05663785 66.83998156 32.43359375 66.6875 C40.39237255 65.9231515 46.12018645 61.88355562 51.6875 56.375 C52.3475 55.570625 53.0075 54.76625 53.6875 53.9375 C55.6875 52.375 55.6875 52.375 59.3125 52.4375 C62.6875 53.375 62.6875 53.375 64.6875 56.375 C64.6875 61.77347999 63.20409373 64.86214986 59.61328125 68.67578125 C48.54800855 78.43925716 36.02836112 80.44379588 21.77880859 79.58642578 C13.42065294 78.7414383 6.9371879 74.74722455 0.6875 69.375 C-2.02204467 70.67009073 -4.46037082 72.12067347 -6.9375 73.8125 C-17.29502198 80.22429932 -29.10097673 80.88599223 -40.87890625 78.71875 C-49.7375657 76.2922931 -59.55343201 71.65163997 -64.3125 63.375 C-65.3125 59.8125 -65.3125 59.8125 -65.3125 56.375 C-63.8125 53.875 -63.8125 53.875 -61.3125 52.375 C-58 52.125 -58 52.125 -54.3125 53.375 C-52.4206662 55.26255363 -50.80404473 57.27667351 -49.140625 59.3671875 C-44.95528757 63.96390425 -38.94928133 66.02061715 -32.8671875 66.61328125 C-25.46474496 66.81830517 -18.46746288 65.9350034 -12.6484375 60.94921875 C-8.04120158 55.73576757 -6.94011269 51.20210064 -7.3125 44.375 C-7.37090184 42.31733307 -7.37090184 42.31733307 -8.3125 40.375 C-10.83668036 38.59765961 -10.83668036 38.59765961 -13.9375 37.0625 C-22.08655108 32.51374227 -28.19095547 27.40716139 -31.3125 18.375 C-31.94760795 14.40557529 -31.54853879 12.82892075 -29.6875 9.25 C-21.72320624 -0.39098719 -11.56326279 0.01165064 0 0 Z " fill="#4F01BA" transform="translate(608.3125,544.625)" data-index="4"></path>
<path d="M0 0 C2.86972587 2.25478461 3.78306583 4.388489 4.2734375 8.03125 C4.90382216 23.35444638 -1.35839794 38.47887775 -8 52 C-8.33999023 52.70302246 -8.67998047 53.40604492 -9.03027344 54.13037109 C-10.0619903 56.24391133 -11.11827648 58.34271522 -12.1875 60.4375 C-12.50823486 61.08299805 -12.82896973 61.72849609 -13.15942383 62.39355469 C-14.46086716 64.8560534 -15.54221416 66.7020162 -17.90234375 68.23828125 C-21.37995873 67.84324491 -23.14550551 65.22495022 -25.375 62.75 C-31.24536084 56.55152219 -37.5936295 51.35722618 -44.39306641 46.21777344 C-46.73905899 44.43992309 -49.05606271 42.62542115 -51.375 40.8125 C-52.58303982 39.87462181 -53.79123955 38.93694924 -55 38 C-54.41996743 34.35306429 -53.0236283 32.62795838 -50.45703125 30.0234375 C-49.71984863 29.27481445 -48.98266602 28.52619141 -48.22314453 27.75488281 C-47.02987549 26.57684082 -47.02987549 26.57684082 -45.8125 25.375 C-44.99894043 24.56901367 -44.18538086 23.76302734 -43.34716797 22.93261719 C-14.93535289 -4.71642723 -14.93535289 -4.71642723 0 0 Z " fill="#E0E4F9" transform="translate(790,348)" data-index="5"></path>
<path d="M0 0 C16.0947459 5.95956487 36.43540505 20.89166958 45 36 C45.0703125 37.97265625 45.0703125 37.97265625 44 40 C41.98639067 41.62224016 40.02932338 43.02873722 37.875 44.4375 C32.27319952 48.26039474 27.04407096 52.34918137 21.9375 56.8125 C21.3192334 57.35124756 20.7009668 57.88999512 20.06396484 58.44506836 C17.32318879 60.86038193 14.78143142 63.24020274 12.31640625 65.94921875 C11.55199219 66.62597656 10.78757812 67.30273438 10 68 C8.00317383 67.85888672 8.00317383 67.85888672 6 67 C4.72314453 65.39624023 4.72314453 65.39624023 3.6328125 63.30859375 C3.22498535 62.53700928 2.8171582 61.7654248 2.39697266 60.97045898 C1.97722168 60.13458252 1.5574707 59.29870605 1.125 58.4375 C0.68591309 57.57777588 0.24682617 56.71805176 -0.20556641 55.83227539 C-7.22239598 41.83350655 -18.08519947 19.92470361 -13 4 C-10.07811041 -1.11330678 -5.33045048 -1.09498555 0 0 Z " fill="#E0E4F9" transform="translate(436,348)" data-index="6"></path>
<path d="M0 0 C4.8678302 5.21856905 8.54633448 11.06823219 9.375 18.25 C9 21 9 21 7.875 22.9375 C4.98249455 24.57658642 3.16701871 23.81840027 0 23 C-2.9296875 21.0390625 -2.9296875 21.0390625 -5.875 18.625 C-14.37513532 11.97447951 -21.08131888 9.74286854 -32 11 C-39.17100487 12.85294578 -45.04259392 16.72670679 -51 21 C-58.02702703 26 -58.02702703 26 -62 26 C-64.8125 24.4375 -64.8125 24.4375 -67 22 C-68.10065128 16.61903819 -65.899765 12.40795377 -63 8 C-54.8255618 -2.519169 -46.52959919 -7.88231129 -33.625 -10.75 C-20.98919569 -11.62143478 -9.78188465 -8.15157055 0 0 Z " fill="#C7CEFD" transform="translate(543,505)" data-index="7"></path>
<path d="M0 0 C4.620506 4.43715259 8.7802084 9.83995116 10.96875 15.890625 C10.90327112 19.7538791 10.79108878 21.95080925 8.21875 24.890625 C5.23026109 26.21884229 4.04330183 25.98867923 0.96875 24.890625 C-1.80282857 23.18988361 -4.42135768 21.32810546 -7.0625 19.43359375 C-16.81475877 12.65165323 -25.28375455 9.42158757 -37.234375 11.22265625 C-43.40317535 12.81055116 -48.17365845 16.65302614 -53.0715332 20.57373047 C-55.7494273 22.64192716 -57.38010962 23.89426266 -60.828125 23.875 C-63.03125 22.890625 -63.03125 22.890625 -65.03125 19.890625 C-64.68739815 11.12240285 -60.6780047 4.6884395 -54.43359375 -1.21875 C-37.44764398 -14.58655437 -16.51037861 -13.75864884 0 0 Z " fill="#C7CEFD" transform="translate(729.03125,505.109375)" data-index="8"></path>
<path d="M0 0 C0.66 0.33 1.32 0.66 2 1 C-1.3 4.3 -4.6 7.6 -8 11 C-8 6.67750434 -5.85084926 5.11604454 -3 2 C-2.01 1.34 -1.02 0.68 0 0 Z " fill="#C8C6F6" transform="translate(214,363)" data-index="9"></path>
<path d="M0 0 C0.66 0.33 1.32 0.66 2 1 C-0.97 3.97 -3.94 6.94 -7 10 C-7.33 9.34 -7.66 8.68 -8 8 C-3.375 2.25 -3.375 2.25 0 0 Z " fill="#C6C5F6" transform="translate(398,304)" data-index="10"></path>
</svg>