<svg version="1.1" xmlns="http://www.w3.org/2000/svg" width="1024" height="1024">

<path d="M0 0 C1.29232796 -0.00307895 1.29232796 -0.00307895 2.61076355 -0.0062201 C5.48153185 -0.01184927 8.35225156 -0.01043794 11.22302437 -0.00901413 C13.30867541 -0.01160011 15.39432595 -0.01461392 17.47997582 -0.01801753 C23.19937045 -0.02606344 28.91875251 -0.02787576 34.63815212 -0.028615 C40.81156244 -0.03046977 46.98496631 -0.03801926 53.15837288 -0.04475021 C67.3558252 -0.05902431 81.55327337 -0.064858 95.75073114 -0.06944216 C102.77367469 -0.07178151 109.79661742 -0.07538454 116.81956034 -0.07913754 C140.88178112 -0.0919706 164.94400146 -0.10268965 189.00622559 -0.10614014 C190.51551493 -0.10636177 192.02480428 -0.10658355 193.53409363 -0.10680549 C195.04693044 -0.10702613 196.55976725 -0.10724661 198.07260406 -0.10746694 C201.10737348 -0.10790948 204.14214289 -0.10835659 207.17691231 -0.10880661 C207.92935351 -0.108916 208.68179471 -0.10902539 209.45703716 -0.1091381 C233.84084218 -0.11276665 258.22461743 -0.12868034 282.60841105 -0.15199697 C308.41647775 -0.17663022 334.22452745 -0.19031461 360.03260624 -0.19150805 C362.86938548 -0.1916795 365.70616472 -0.19189492 368.54294395 -0.19214249 C369.24138778 -0.19219826 369.93983161 -0.19225402 370.65944041 -0.19231148 C381.86688252 -0.19345892 393.07429392 -0.2044547 404.28172568 -0.21902954 C415.56134976 -0.23344385 426.84093533 -0.2363527 438.12056963 -0.22858956 C444.2232583 -0.2246949 450.3258443 -0.22555468 456.4285202 -0.23964691 C462.0273736 -0.25245688 467.62604793 -0.25112648 473.22490133 -0.2390562 C475.23840562 -0.23711142 477.2519229 -0.24012042 479.26540898 -0.24890056 C495.75116051 -0.31617364 512.34152175 0.7869289 528.15738106 5.81892776 C528.97545235 6.07311478 529.79352364 6.32730179 530.63638496 6.58919144 C549.65357664 12.76137304 568.71115795 23.84415605 581.39566231 39.44783401 C583.01627063 41.25269755 584.75022832 42.63539777 586.65738106 44.13142776 C605.48798322 60.26681016 615.60050037 91.48378987 617.90738106 115.13142776 C618.05433784 119.06687572 618.05091504 122.99968209 618.04782295 126.93753433 C618.05227964 128.71605145 618.05227964 128.71605145 618.05682635 130.53049821 C618.06398285 133.80919969 618.06668382 137.08786917 618.06742382 140.36657727 C618.06928106 143.90807814 618.07683195 147.44956781 618.08355904 150.99106216 C618.09711815 158.73127725 618.10316387 166.47148714 618.10756969 174.21171212 C618.11033735 179.05174954 618.11457576 183.89178498 618.11907387 188.73182106 C618.13126551 202.15119457 618.14156364 215.57056649 618.14494896 228.98994541 C618.14516853 229.84821393 618.14538809 230.70648245 618.14561431 231.59075911 C618.14583259 232.45100895 618.14605087 233.3112588 618.14627576 234.19757682 C618.14671921 235.94058247 618.14716578 237.68358813 618.14761543 239.42659378 C618.14783686 240.2911732 618.14805829 241.15575261 618.14828643 242.0465314 C618.15222856 256.03398013 618.16966514 270.02137657 618.19297495 284.00880513 C618.21675284 298.39417359 618.2291538 312.77951589 618.23031688 327.1649043 C618.23123026 335.23164321 618.23689672 343.29831406 618.25513649 351.3650341 C618.27062492 358.23890584 618.27560704 365.1126885 618.26739839 371.98657439 C618.26352196 375.48655565 618.26427171 378.98635804 618.27845573 382.48631668 C618.34014335 400.82713219 617.85357186 418.3420858 611.71988106 435.81892776 C611.41799873 436.69557083 611.11611641 437.5722139 610.80508614 438.47542191 C604.53519439 456.0635853 594.70252745 471.5192616 580.56753731 483.74861526 C578.42526706 485.66753575 576.79145155 487.40701456 575.09488106 489.69392776 C560.09554395 507.97300331 529.35942262 517.20905228 506.86545491 519.86617041 C496.72328482 520.77564237 486.48965679 520.49571116 476.31674182 520.43223619 C472.64474931 520.41283149 468.97274292 520.41143571 465.30070686 520.40805435 C458.95875779 520.40021206 452.61690218 520.38246996 446.2749939 520.3587265 C436.2438397 520.32205371 426.21277802 520.31687064 416.18156624 520.31645584 C412.73907944 520.31593278 409.2965927 520.31520922 405.85410595 520.31442451 C404.99425353 520.31423662 404.13440111 520.31404873 403.24849255 520.31385515 C393.49733202 520.31130457 383.74618099 520.30238874 373.99502754 520.29060745 C373.10522951 520.28954077 372.21543149 520.28847409 371.29866988 520.28737508 C356.8474138 520.26925953 342.39628836 520.228112 327.94510113 520.18126453 C313.07117568 520.13388563 298.19747357 520.12101926 283.3234821 520.13760936 C274.16662398 520.14653984 265.01070197 520.1272699 255.85400624 520.07133548 C249.58530686 520.03541006 243.31712736 520.03222674 237.04836714 520.05462475 C233.43535817 520.06650311 229.82391883 520.06385098 226.21110344 520.02157784 C222.28912936 519.97603291 218.36931602 520.00052712 214.44716072 520.03136063 C213.31418302 520.00698964 212.18120533 519.98261866 211.01389498 519.95750916 C203.27310262 520.10027157 199.53389178 522.26049187 194.14841419 527.79241645 C193.03910279 528.95022705 193.03910279 528.95022705 191.90738106 530.13142776 C190.23922491 531.5503224 188.55363029 532.94918947 186.84488106 534.31892776 C185.47783028 535.42687698 185.47783028 535.42687698 184.08316231 536.55720901 C183.58510078 536.96020218 183.08703926 537.36319534 182.57388496 537.77840042 C179.21435682 540.50598685 175.87378291 543.25669004 172.53238106 546.00642776 C171.80252998 546.60696976 171.07267891 547.20751175 170.32071114 547.82625198 C165.32566716 551.94387083 160.37032875 556.10518892 155.43911934 560.29890823 C151.24409924 563.8617118 146.98823828 567.34468352 142.71988106 570.81892776 C139.58938194 573.39289371 136.49574696 576.00722243 133.40738106 578.63142776 C128.641056 582.67918689 123.83453122 586.67101455 118.98550606 590.61970901 C115.11557889 593.77753029 111.26164637 596.95452514 107.40738106 600.13142776 C105.93346605 601.34502205 104.45950856 602.55856475 102.98550606 603.77205276 C100.59776547 605.73803973 98.2122656 607.70657406 95.82925606 609.67830276 C90.91045659 613.73415496 85.9386609 617.71634977 80.90738106 621.63142776 C80.07835274 622.28256546 80.07835274 622.28256546 79.23257637 622.94685745 C72.82852928 627.88984482 66.78692412 627.81577891 58.90738106 627.13142776 C53.18916121 625.32049411 49.54067172 621.26114409 46.81610298 616.04031754 C45.55342282 611.99837983 45.64478334 608.23683826 45.68033028 604.02669144 C45.68003822 603.11887924 45.67974617 602.21106705 45.67944527 601.27574539 C45.68083547 598.28353092 45.69638222 595.29156734 45.71206856 592.29939651 C45.71579978 590.22146109 45.71864624 588.1435239 45.720644 586.06558609 C45.72827181 580.60262042 45.74791305 575.13976149 45.77005196 569.67683792 C45.79052869 564.09986693 45.79964963 558.52287866 45.80972481 552.94588089 C45.83115969 542.00768301 45.86528542 531.06956427 45.90738106 520.13142776 C45.14920082 520.13586899 44.39102058 520.14031021 43.60986519 520.14488602 C36.40332332 520.18525219 29.19683762 520.21555741 21.99021149 520.23505211 C18.28677033 520.24541198 14.58342395 520.25942526 10.88003731 520.28230667 C7.29439194 520.30431754 3.7088367 520.31605469 0.12312889 520.32118225 C-1.88498474 520.32658111 -3.89306299 520.34214662 -5.90112114 520.35802078 C-36.07464362 520.36163758 -65.09728042 509.57532437 -87.31136894 488.93611526 C-88.87868547 487.34817615 -90.31623318 485.74019348 -91.71761894 484.00642776 C-93.60376151 481.72320255 -95.00215581 480.37557587 -97.28011894 478.63142776 C-115.30972804 463.50223405 -126.15580282 433.74868555 -129.09261894 411.13142776 C-129.24292382 407.14317082 -129.23610743 403.15709027 -129.23306084 399.16637039 C-129.23603196 397.95155074 -129.23900308 396.73673109 -129.24206424 395.48509872 C-129.24922974 392.12045839 -129.25192241 388.75586914 -129.25266171 385.39122486 C-129.25451674 381.75908274 -129.26206652 378.12695158 -129.26879692 374.49481583 C-129.28236474 366.55426894 -129.28840306 358.61372711 -129.29280758 350.67317057 C-129.29557364 345.7096995 -129.29981176 340.74623037 -129.30431175 335.78276062 C-129.31650432 322.02629405 -129.32680241 308.26982902 -129.33018684 294.51335716 C-129.33051619 293.1932371 -129.33051619 293.1932371 -129.3308522 291.84644794 C-129.33107047 290.96431444 -129.33128875 290.08218094 -129.33151364 289.17331612 C-129.3319571 287.38591583 -129.33240366 285.59851555 -129.33285332 283.81111526 C-129.33307475 282.92451142 -129.33329618 282.03790758 -129.33352432 281.12443696 C-129.33746748 266.77668193 -129.35490685 252.42897783 -129.37821284 238.08124246 C-129.40197637 223.33205137 -129.41439103 208.58288579 -129.41555476 193.83367527 C-129.41646892 185.56018797 -129.42215532 177.28676698 -129.44037437 169.01329803 C-129.45584328 161.96404203 -129.46085621 154.91487281 -129.45263627 147.86560304 C-129.44875311 144.27474127 -129.44954355 140.68405389 -129.46369362 137.09321404 C-129.60928428 97.85303826 -119.56580694 64.79898909 -91.78011894 36.38142776 C-82.95359367 27.66078942 -73.08138835 21.00283948 -62.21761894 15.06892776 C-61.52829277 14.68639847 -60.8389666 14.30386917 -60.12875175 13.90974808 C-55.39859849 11.4296629 -51.42186092 10.51890062 -46.09261894 10.13142776 C-46.09261894 9.47142776 -46.09261894 8.81142776 -46.09261894 8.13142776 C-30.69852758 3.4524812 -16.19029868 -0.03666199 0 0 Z " fill="#FE0000" transform="translate(268.09261894226074,209.86857223510742)" data-index="1"></path>
<path d="M0 0 C2.20898172 1.61847149 4.38920564 3.27152199 6.5625 4.9375 C7.14580078 5.3794873 7.72910156 5.82147461 8.33007812 6.27685547 C15.6795858 11.86034067 22.66455052 17.6791792 29.35546875 24.0390625 C31.5017635 26.12776211 31.5017635 26.12776211 34.5625 26.9375 C37.19617748 26.13777602 39.73421517 25.26392027 42.3125 24.3125 C91.54763877 7.18309801 146.78107249 9.50860674 195.5625 26.9375 C196.50996094 26.04611328 196.50996094 26.04611328 197.4765625 25.13671875 C227.69186945 -2.85815498 269.92846583 -32.45263107 312.7578125 -33.2109375 C315.92991895 -33.08717975 318.2870947 -32.84212328 321.25 -31.8125 C321.95511719 -31.58046875 322.66023438 -31.3484375 323.38671875 -31.109375 C330.86917078 -27.5092006 333.49549989 -21.40471239 336.5625 -14.0625 C337.54546319 -11.07468119 338.14326545 -8.17681381 338.5625 -5.0625 C338.67207031 -4.30453125 338.78164063 -3.5465625 338.89453125 -2.765625 C343.43035007 36.18193923 334.42658777 85.40839193 310.140625 117.09765625 C308.22462042 119.84287562 308.22462042 119.84287562 309.0859375 122.90234375 C310.67848513 126.17591388 312.3819176 129.33843241 314.1875 132.5 C331.69542172 164.43048059 340.86568612 206.51437118 330.625 242.0625 C329.4861818 245.83397079 328.63717013 248.39717425 325.5625 250.9375 C325.42714844 250.09832031 325.29179688 249.25914062 325.15234375 248.39453125 C318.41044097 210.72869118 297.81305637 171.16731457 267.5625 146.9375 C267.07491211 146.53805176 266.58732422 146.13860352 266.08496094 145.72705078 C245.20117887 128.79272719 220.63133134 119.12749751 193.5625 121.9375 C181.20295612 124.00629914 170.83429819 130.35247621 163.125 140.1875 C155.43575841 151.69767889 153.69971008 163.99527215 156.22265625 177.4609375 C161.03015179 194.9843628 173.71245953 206.39704109 187.61572266 217.07202148 C200.66193474 227.12004708 211.56446998 240.52790261 214.27734375 257.2265625 C216.11333699 274.68107354 212.22764623 289.72757105 201.4609375 303.65625 C185.41762001 322.47738572 160.33563969 330.25646754 136.41943359 332.7434082 C129.54197183 333.21064304 122.64063071 333.1824623 115.75 333.1875 C114.50904068 333.18851212 114.50904068 333.18851212 113.24301147 333.18954468 C100.79022246 333.17340611 88.74401832 332.74968419 76.5625 329.9375 C75.80565918 329.77121094 75.04881836 329.60492187 74.26904297 329.43359375 C53.24678259 324.68677351 35.04931574 315.08869789 22.5625 296.9375 C15.1521981 284.02504893 12.3812145 269.0534295 15.25390625 254.4140625 C20.64396895 235.42480395 33.57585984 222.20488951 49 210.5625 C61.63278182 200.81784107 70.58967217 189.63958254 74.25 174 C75.69936306 159.79624204 72.70341698 148.10916726 63.88671875 136.78515625 C56.30019117 128.32138565 44.40150231 122.72025742 33.10888672 121.72021484 C3.93077248 120.3951762 -20.91915889 131.59517092 -42.4375 150.9375 C-70.5155595 176.85570877 -90.27070313 213.18895523 -96.4375 250.9375 C-98.94836373 247.73179527 -100.30508113 244.95356783 -101.5625 241.0625 C-102.06136719 239.55042969 -102.06136719 239.55042969 -102.5703125 238.0078125 C-107.66267784 219.97808656 -105.68597119 195.97727972 -101.4375 177.9375 C-101.23882324 177.07543945 -101.04014648 176.21337891 -100.83544922 175.32519531 C-96.7830714 158.19896634 -90.90977674 141.80629071 -81.69970703 126.74243164 C-80.11445822 124.01149807 -79.30831935 122.52509255 -80 119.37890625 C-81.6237989 116.62109562 -83.30644995 113.92605237 -85.0625 111.25 C-106.60143485 77.15906519 -116.40073954 29.52746932 -108.4375 -10.0625 C-106.26966304 -18.43160135 -102.88726168 -26.24734465 -95.375 -31 C-65.49217741 -41.80868051 -23.35625567 -16.67017734 0 0 Z " fill="#FEFDFD" transform="translate(493.4375,335.0625)" data-index="2"></path>
<path d="M0 0 C3.39458694 2.32056896 6.72864598 4.70886432 10.046875 7.13671875 C14.36469807 10.28741452 18.77018998 13.30354242 23.1875 16.3125 C24.39539185 17.13657349 24.39539185 17.13657349 25.62768555 17.97729492 C28.0844263 19.65255582 30.54217244 21.32633413 33 23 C44.18633676 30.62459964 55.33052094 38.30601775 66.43676758 46.046875 C72.58536408 50.32918192 78.75046686 54.58592262 84.9375 58.8125 C85.70771484 59.3386792 86.47792969 59.8648584 87.27148438 60.40698242 C89.5140758 61.93835063 91.75700788 63.46921876 94 65 C99.34581686 68.64882666 104.6812704 72.31179758 110 76 C111.07636719 76.7425 112.15273438 77.485 113.26171875 78.25 C126.24925479 87.40543262 126.24925479 87.40543262 128 96 C128.68304767 103.43996539 128.73886312 109.94067241 124 116 C118.07481698 122.33022482 111.03154405 127.26665787 103.95703125 132.2109375 C99.49702835 135.33373212 95.12500495 138.57219953 90.75 141.8125 C84.52716036 146.4134525 78.28137292 150.9792888 72 155.5 C62.61213466 162.25975601 53.30303378 169.12417438 44 176 C32.34918937 184.61105572 20.67662305 193.18817601 8.90332031 201.63134766 C7.23004651 202.83457661 5.56367671 204.04739444 3.8984375 205.26171875 C-3.51123876 210.60071509 -9.58994352 214.15391021 -19 213 C-25.43251671 211.67530732 -30.13242063 208.28732369 -34 203 C-36.5290114 197.94323053 -37.43685451 193.86689976 -37.38768005 188.18873596 C-37.39575836 187.05504551 -37.39575836 187.05504551 -37.40399987 185.89845222 C-37.41823432 183.38208392 -37.41118709 180.86624502 -37.40405273 178.34985352 C-37.40975866 176.53915994 -37.41672379 174.72846997 -37.42485046 172.91778564 C-37.44277213 168.01074271 -37.44161537 163.10387869 -37.43590808 158.19681287 C-37.43281487 154.09641102 -37.43891014 149.99604347 -37.44494683 145.89564651 C-37.45898712 136.22068511 -37.4574348 126.54581203 -37.44604492 116.87084961 C-37.43456331 106.89773161 -37.44864127 96.9248825 -37.4754414 86.95179993 C-37.49760915 78.38088482 -37.50423337 69.81005405 -37.49836498 61.23911232 C-37.4949969 56.12371915 -37.49740076 51.00849835 -37.51461601 45.89312935 C-37.53010022 41.08230665 -37.52611318 36.27188189 -37.50731087 31.46107483 C-37.50362912 29.69867974 -37.50672137 27.93625506 -37.51719666 26.17388725 C-37.61443753 8.45725718 -37.61443753 8.45725718 -31.2890625 0.9765625 C-21.12597408 -7.27796472 -10.81153944 -6.83648131 0 0 Z " fill="#FEFDFD" transform="translate(240,366)" data-index="3"></path>
<path d="M0 0 C1.16402344 -0.02449219 2.32804688 -0.04898438 3.52734375 -0.07421875 C11.7974623 -0.1020019 20.16202619 0.64601644 26.81420898 6.05273438 C29.58379089 8.84189372 30.64771032 10.87285068 31.4375 14.75 C29.69543982 23.93540824 24.12664417 29.94667214 16.75 35.375 C10.1471831 39.375 10.1471831 39.375 6.75 39.375 C5.84092873 50.17337141 5.84092873 50.17337141 10.02734375 59.75390625 C15.5740451 64.97359119 21.2728488 66.68509267 28.8125 66.9375 C38.50578733 66.54850691 44.93835426 63.11475502 51.75 56.375 C52.41 55.570625 53.07 54.76625 53.75 53.9375 C55.75 52.375 55.75 52.375 59.375 52.4375 C62.75 53.375 62.75 53.375 64.75 56.375 C64.65919404 61.18771585 63.71038805 64.34901841 60.375 67.90234375 C50.27190318 77.05827524 38.0826777 80.36390369 24.6171875 79.75390625 C14.50502145 78.76311826 7.25202466 75.11924439 -0.25 68.375 C-0.95962891 68.95507812 -0.95962891 68.95507812 -1.68359375 69.546875 C-12.80844491 78.30796636 -23.36188661 80.35027904 -37.25 79.375 C-46.18346761 77.87625444 -56.85602966 73.10260352 -62.47265625 65.78125 C-64.43655165 62.74553372 -65.25594706 60.69019393 -65.1875 57.0625 C-64.25 54.375 -64.25 54.375 -61.25 52.375 C-58.0625 52.1875 -58.0625 52.1875 -54.25 53.375 C-52.3671875 55.3125 -52.3671875 55.3125 -50.4375 57.6875 C-45.48619334 63.64424441 -40.69937183 65.86077819 -33.0390625 66.74609375 C-25.37146657 67.04100129 -18.54418042 66.22604632 -12.66015625 60.94921875 C-8.91770921 56.75116946 -7.17445053 52.86413157 -7 47.3125 C-7.22773556 43.72566496 -7.37353333 42.27168157 -9.25 39.375 C-11.14690714 38.44318597 -13.046239 37.51578014 -14.9609375 36.62109375 C-22.42633761 32.55716434 -28.17875087 26.30413838 -31.25 18.375 C-31.95316431 14.39040226 -31.49746725 12.86993449 -29.6875 9.25 C-21.97473914 0.15289745 -11.15179559 0.01218775 0 0 Z " fill="#FA0106" transform="translate(608.25,544.625)" data-index="4"></path>
<path d="M0 0 C5.44973644 4.76851938 10.81771734 10.98059332 12.0625 18.3125 C12 22 12 22 10.5625 24.5 C10.046875 24.995 9.53125 25.49 9 26 C3.78429879 25.55117111 1.13867108 23.9147198 -2.875 20.625 C-11.41726712 13.94151552 -18.04772313 11.81408467 -29 13 C-36.89364783 14.59684985 -42.89044642 18.70915186 -49.14208984 23.55810547 C-52.35561421 26.01942984 -54.87553319 27.86488816 -59 28 C-61.875 26 -61.875 26 -64 23 C-64.38572429 16.44268713 -60.7979683 11.09055415 -57 6 C-41.78824595 -10.6632573 -18.23339769 -13.99307265 0 0 Z " fill="#FCF7F9" transform="translate(540,503)" data-index="5"></path>
<path d="M0 0 C8.64983207 5.18989924 17.13832402 11.95365471 20.4296875 21.87890625 C20.97175816 24.948738 20.83315784 27.21202729 19.67578125 30.10546875 C16.57496373 32.43108189 14.45345491 32.11769569 10.67578125 31.60546875 C7.80078125 29.98046875 7.80078125 29.98046875 4.67578125 27.60546875 C-5.10937441 20.54051081 -13.94968982 16.00386078 -26.32421875 17.60546875 C-30.98599545 18.79856753 -34.71356616 21.13620915 -38.59375 23.91015625 C-39.16875244 24.32080322 -39.74375488 24.7314502 -40.33618164 25.15454102 C-41.47715533 25.98394667 -42.60592995 26.830453 -43.72045898 27.69506836 C-46.30216287 29.61318902 -47.82479938 30.61463888 -51.08984375 30.5546875 C-53.32421875 29.60546875 -53.32421875 29.60546875 -55.32421875 26.60546875 C-55.16998361 18.89371152 -51.32668044 12.5278163 -46.26171875 6.91796875 C-34.20829391 -4.49686404 -14.81841771 -7.31697804 0 0 Z " fill="#FCF7F9" transform="translate(719.32421875,498.39453125)" data-index="6"></path>
</svg>